<svg width="49" height="48" viewBox="0 0 49 48" fill="none" xmlns="http://www.w3.org/2000/svg">
<g clip-path="url(#clip0_63_582)">
<path d="M42.1078 33.8269C42.1078 24.365 34.4347 16.6919 24.9729 16.6919C15.511 16.6919 7.83789 24.365 7.83789 33.8269H42.1078Z" stroke="black" stroke-width="1.5" stroke-miterlimit="10"/>
<path d="M16.4238 24.3723C18.6871 22.3208 21.6877 21.0724 24.9731 21.0724" stroke="black" stroke-width="1.5" stroke-miterlimit="10"/>
<path d="M24.9727 16.6919V11.6106" stroke="black" stroke-width="1.5" stroke-miterlimit="10"/>
<path d="M24.9724 11.6106C26.2828 11.6106 27.3451 10.5482 27.3451 9.23781C27.3451 7.92737 26.2828 6.86505 24.9724 6.86505C23.6619 6.86505 22.5996 7.92737 22.5996 9.23781C22.5996 10.5482 23.6619 11.6106 24.9724 11.6106Z" stroke="black" stroke-width="1.5" stroke-miterlimit="10"/>
<path d="M24.9727 33.8269V40.2151" stroke="black" stroke-width="1.5" stroke-miterlimit="10"/>
<path d="M7.83789 40.2151H42.1078" stroke="black" stroke-width="1.5" stroke-miterlimit="10"/>
</g>
<defs>
<clipPath id="clip0_63_582">
<rect width="36" height="35" fill="white" transform="translate(6.97266 6)"/>
</clipPath>
</defs>
</svg>
