<svg width="91" height="75" viewBox="0 0 91 75" fill="none" xmlns="http://www.w3.org/2000/svg">
<g filter="url(#filter0_d_2590_5813)">
<path d="M82.3795 32.5362V65.7387H74.4002H62.0078H24.1901V32.5362" fill="#FBFFFB"/>
</g>
<g filter="url(#filter1_d_2590_5813)">
<path d="M74.3988 42.8152H62.0014V65.2557H74.3988V42.8152Z" fill="#7ECDD2"/>
<path d="M74.3988 42.8152H62.0014V65.2557H74.3988V42.8152Z" stroke="white" stroke-width="0.985092" stroke-miterlimit="10"/>
</g>
<path d="M1.85818 8.33231H11.3791L10.3645 18.5526H2.8679L1.85818 8.33231Z" fill="#FFEEA4"/>
<path d="M56.2058 42.8598H30.9628V57.7397H56.2107V42.8598H56.2058Z" fill="#7ECDD2" stroke="white" stroke-width="0.985092" stroke-miterlimit="10"/>
<path d="M72.5754 55.7351C72.5754 54.9421 71.935 54.3018 71.142 54.3018C70.349 54.3018 69.7087 54.947 69.7087 55.7351C69.7087 56.5231 70.349 57.1684 71.142 57.1684C71.935 57.1684 72.5754 56.5281 72.5754 55.7351Z" fill="white"/>
<path d="M4.33716 67.0832H8.96709L7.94752 25.7635H5.35673L4.33716 67.0832Z" fill="#1C0C0A"/>
<path d="M8.91573 65.0639C10.7923 65.4038 12.0976 66.1672 12.0976 67.0489C12.0976 68.2556 9.65948 69.2308 6.65495 69.2308C3.65041 69.2308 1.21231 68.2556 1.21231 67.0489C1.21231 66.1672 2.51263 65.4038 4.39416 65.0639" fill="#1C0C0A"/>
<path d="M10.3645 18.5527H2.8679L1.85818 9.03175H11.3791L10.3645 18.5527Z" stroke="black" stroke-width="0.985092" stroke-miterlimit="10"/>
<path d="M4.47961 20.8874L1.72135 18.8237C1.62777 18.7547 1.66225 18.5528 1.77061 18.5528H11.3162C11.4245 18.5528 11.4639 18.7498 11.3654 18.8237L8.60715 20.8874" fill="#1C0C0A"/>
<path d="M4.49963 9.08577L5.09069 18.5525" stroke="black" stroke-width="0.492546" stroke-miterlimit="10" stroke-linecap="round"/>
<path d="M8.7484 9.03175L8.14749 18.5527" stroke="black" stroke-width="0.492546" stroke-miterlimit="10" stroke-linecap="round"/>
<path d="M8.44785 20.8231H4.64047C4.23787 20.8231 3.9115 21.1495 3.9115 21.5521V21.8673C3.9115 22.2699 4.23787 22.5963 4.64047 22.5963H8.44785C8.85045 22.5963 9.17682 22.2699 9.17682 21.8673V21.5521C9.17682 21.1495 8.85045 20.8231 8.44785 20.8231Z" fill="#665554"/>
<path d="M7.68687 22.5966H5.564L5.84967 25.7834H7.39627L7.68687 22.5966Z" fill="#665554"/>
<path d="M7.97619 5.87939L13.2267 8.76079C13.3597 8.82975 13.3055 9.03169 13.1578 9.03169H0.144706C-0.00305777 9.03169 -0.0572378 8.83467 0.0757496 8.76079L5.27704 5.90895" fill="#1C0C0A"/>
<path d="M6.61765 1.90959V3.64335" stroke="#1C0C0A" stroke-width="0.985092" stroke-miterlimit="10" stroke-linecap="round"/>
<path d="M6.61823 6.70173C7.46151 6.70173 8.14513 6.01812 8.14513 5.17484C8.14513 4.33156 7.46151 3.64795 6.61823 3.64795C5.77495 3.64795 5.09134 4.33156 5.09134 5.17484C5.09134 6.01812 5.77495 6.70173 6.61823 6.70173Z" fill="#665554"/>
<path d="M43.5882 42.8598V57.7397" stroke="white" stroke-width="0.985092" stroke-miterlimit="10"/>
<path d="M30.9628 50.7948H56.2058" stroke="white" stroke-width="0.985092" stroke-miterlimit="10"/>
<path d="M56.9286 11.9772H49.634V34.5604H56.9286V11.9772Z" fill="#F4614A"/>
<path d="M43.6635 11.9772L42.3237 34.5654H49.6331V11.9772H43.6635Z" fill="#E3DFDD"/>
<path d="M37.6878 11.9772L35.0132 34.5654H42.3226L43.6624 11.9772H37.6878Z" fill="#F4614A"/>
<path d="M31.7194 11.9772L27.7101 34.5654H35.0146L37.6891 11.9772H31.7194Z" fill="#E3DFDD"/>
<path d="M25.7438 11.9772L20.3996 34.5654H27.709L31.7183 11.9772H25.7438Z" fill="#F4614A"/>
<path d="M56.9264 11.9772V34.5654H64.2358L62.901 11.9772H56.9264Z" fill="#E3DFDD"/>
<path d="M74.8453 11.9772L78.8546 34.5654H86.164L80.8149 11.9772H74.8453Z" fill="#F4614A"/>
<path d="M68.8699 11.9772L71.5445 34.5654H78.8538L74.8445 11.9772H68.8699Z" fill="#E3DFDD"/>
<path d="M62.9017 11.9772L64.2365 34.5654H71.5459L68.8714 11.9772H62.9017Z" fill="#F4614A"/>
<g filter="url(#filter2_d_2590_5813)">
<path d="M80.8168 5.61824H25.7452V9.85907H80.8168V5.61824Z" fill="white"/>
</g>
<path d="M80.8168 9.85918H25.7452V11.9771H80.8168V9.85918Z" fill="#808080"/>
<g filter="url(#filter3_d_2590_5813)">
<path d="M24.0543 39.0867C26.0639 39.0867 27.7041 37.4564 27.7041 35.4616V34.5651H20.3996V35.4616C20.3996 37.4564 22.0447 39.0867 24.0494 39.0867H24.0543Z" fill="#C43323"/>
<path d="M31.3574 39.0868C33.367 39.0868 35.0072 37.4565 35.0072 35.4617V34.5652H27.7027V35.4617C27.7027 37.4565 29.3478 39.0868 31.3525 39.0868H31.3574Z" fill="#FBFFFB"/>
<path d="M38.6643 39.0868C40.6739 39.0868 42.3141 37.4565 42.3141 35.4617V34.5652H35.0096V35.4617C35.0096 37.4565 36.6547 39.0868 38.6594 39.0868H38.6643Z" fill="#C43323"/>
<path d="M45.9675 39.0868C47.9771 39.0868 49.6172 37.4565 49.6172 35.4617V34.5652H42.3128V35.4617C42.3128 37.4565 43.9579 39.0868 45.9625 39.0868H45.9675Z" fill="#FBFFFB"/>
<path d="M53.278 39.0868C55.2876 39.0868 56.9278 37.4565 56.9278 35.4617V34.5652H49.6233V35.4617C49.6233 37.4565 51.2684 39.0868 53.2731 39.0868H53.278Z" fill="#C43323"/>
<path d="M60.5883 39.0868C62.5978 39.0868 64.238 37.4565 64.238 35.4617V34.5652H56.9336V35.4617C56.9336 37.4565 58.5787 39.0868 60.5833 39.0868H60.5883Z" fill="#FBFFFB"/>
<path d="M67.888 39.0868C69.8976 39.0868 71.5378 37.4565 71.5378 35.4617V34.5652H64.2333V35.4617C64.2333 37.4565 65.8784 39.0868 67.8831 39.0868H67.888Z" fill="#C43323"/>
<path d="M75.1947 39.0868C77.2043 39.0868 78.8445 37.4565 78.8445 35.4617V34.5652H71.54V35.4617C71.54 37.4565 73.1851 39.0868 75.1898 39.0868H75.1947Z" fill="#FBFFFB"/>
<path d="M82.5052 39.0868C84.5148 39.0868 86.155 37.4565 86.155 35.4617V34.5652H78.8505V35.4617C78.8505 37.4565 80.4956 39.0868 82.5003 39.0868H82.5052Z" fill="#C43323"/>
</g>
<path d="M85.9252 65.7385H20.6431V68.2653H85.9252V65.7385Z" fill="#808080"/>
<defs>
<filter id="filter0_d_2590_5813" x="14.3391" y="23.6703" width="75.9211" height="50.9342" filterUnits="userSpaceOnUse" color-interpolation-filters="sRGB">
<feFlood flood-opacity="0" result="BackgroundImageFix"/>
<feColorMatrix in="SourceAlpha" type="matrix" values="0 0 0 0 0 0 0 0 0 0 0 0 0 0 0 0 0 0 127 0" result="hardAlpha"/>
<feOffset dx="-0.985092"/>
<feGaussianBlur stdDeviation="4.43292"/>
<feColorMatrix type="matrix" values="0 0 0 0 0 0 0 0 0 0 0 0 0 0 0 0 0 0 0.3 0"/>
<feBlend mode="normal" in2="BackgroundImageFix" result="effect1_dropShadow_2590_5813"/>
<feBlend mode="normal" in="SourceGraphic" in2="effect1_dropShadow_2590_5813" result="shape"/>
</filter>
<filter id="filter1_d_2590_5813" x="59.5387" y="41.3376" width="15.3527" height="25.3957" filterUnits="userSpaceOnUse" color-interpolation-filters="sRGB">
<feFlood flood-opacity="0" result="BackgroundImageFix"/>
<feColorMatrix in="SourceAlpha" type="matrix" values="0 0 0 0 0 0 0 0 0 0 0 0 0 0 0 0 0 0 127 0" result="hardAlpha"/>
<feOffset dx="-0.985092"/>
<feGaussianBlur stdDeviation="0.492546"/>
<feColorMatrix type="matrix" values="0 0 0 0 0 0 0 0 0 0 0 0 0 0 0 0 0 0 0.25 0"/>
<feBlend mode="normal" in2="BackgroundImageFix" result="effect1_dropShadow_2590_5813"/>
<feBlend mode="normal" in="SourceGraphic" in2="effect1_dropShadow_2590_5813" result="shape"/>
</filter>
<filter id="filter2_d_2590_5813" x="19.8347" y="0.692783" width="64.9225" height="14.0917" filterUnits="userSpaceOnUse" color-interpolation-filters="sRGB">
<feFlood flood-opacity="0" result="BackgroundImageFix"/>
<feColorMatrix in="SourceAlpha" type="matrix" values="0 0 0 0 0 0 0 0 0 0 0 0 0 0 0 0 0 0 127 0" result="hardAlpha"/>
<feOffset dx="-0.985092"/>
<feGaussianBlur stdDeviation="2.46273"/>
<feColorMatrix type="matrix" values="0 0 0 0 0 0 0 0 0 0 0 0 0 0 0 0 0 0 0.28 0"/>
<feBlend mode="normal" in2="BackgroundImageFix" result="effect1_dropShadow_2590_5813"/>
<feBlend mode="normal" in="SourceGraphic" in2="effect1_dropShadow_2590_5813" result="shape"/>
</filter>
<filter id="filter3_d_2590_5813" x="19.4145" y="34.5651" width="67.7256" height="6.98442" filterUnits="userSpaceOnUse" color-interpolation-filters="sRGB">
<feFlood flood-opacity="0" result="BackgroundImageFix"/>
<feColorMatrix in="SourceAlpha" type="matrix" values="0 0 0 0 0 0 0 0 0 0 0 0 0 0 0 0 0 0 127 0" result="hardAlpha"/>
<feOffset dy="1.47764"/>
<feGaussianBlur stdDeviation="0.492546"/>
<feColorMatrix type="matrix" values="0 0 0 0 0 0 0 0 0 0 0 0 0 0 0 0 0 0 0.25 0"/>
<feBlend mode="normal" in2="BackgroundImageFix" result="effect1_dropShadow_2590_5813"/>
<feBlend mode="normal" in="SourceGraphic" in2="effect1_dropShadow_2590_5813" result="shape"/>
</filter>
</defs>
</svg>
