<svg width="39" height="37" viewBox="0 0 39 37" fill="none" xmlns="http://www.w3.org/2000/svg">
<g clip-path="url(#clip0_71_81)">
<path d="M13.3074 12.0261C12.1953 13.1073 10.3995 13.1073 9.29434 12.0261C8.1892 10.945 8.18229 9.1991 9.29434 8.11797C10.4064 7.03685 12.2022 7.03685 13.3143 8.11797C14.4263 9.1991 14.4263 10.945 13.3143 12.0194L13.3074 12.0261Z" stroke="black" stroke-width="1.5" stroke-miterlimit="10"/>
<path d="M21.5962 22.233L22.4112 26.0874L26.8663 26.4031L27.191 30.7343L31.7359 31.1372L31.9569 35.4684L37.6207 35.6564L37.4273 30.1501L25.0221 18.0898C27.2186 13.7519 26.4588 8.35296 22.7428 4.74698C18.0666 0.200878 10.4964 0.200878 5.82028 4.74698C1.15105 9.28636 1.15105 16.6461 5.82028 21.1922C9.52941 24.7982 15.0828 25.5435 19.5448 23.4081C19.5448 23.4081 20.7259 22.7971 21.5893 22.233H21.5962Z" stroke="black" stroke-width="1.5" stroke-miterlimit="10"/>
</g>
<defs>
<clipPath id="clip0_71_81">
<rect width="38" height="37" fill="white" transform="translate(0.972656)"/>
</clipPath>
</defs>
</svg>
