<svg width="126" height="52" viewBox="0 0 126 52" fill="none" xmlns="http://www.w3.org/2000/svg">
<g filter="url(#filter0_d_3043_16211)">
<rect x="117.92" y="41.7593" width="109.92" height="33.3952" rx="6" transform="rotate(-180 117.92 41.7593)" fill="url(#paint0_linear_3043_16211)"/>
<rect x="8" y="6" width="109.92" height="33.3952" rx="6" fill="url(#paint1_linear_3043_16211)"/>
<rect x="12.5762" y="11.0132" width="100.38" height="24.2163" rx="2.25" stroke="url(#paint2_linear_3043_16211)" stroke-width="1.5"/>
<mask id="mask0_3043_16211" style="mask-type:alpha" maskUnits="userSpaceOnUse" x="11" y="10" width="103" height="26">
<rect x="11.8262" y="10.2632" width="101.88" height="24.8686" rx="3" fill="url(#paint3_linear_3043_16211)"/>
</mask>
<g mask="url(#mask0_3043_16211)">
<rect x="28.6484" y="-22.835" width="53.5106" height="79.304" transform="rotate(30 28.6484 -22.835)" fill="url(#paint4_linear_3043_16211)" fill-opacity="0.9"/>
<rect width="60.1964" height="82.7388" transform="matrix(0.895796 0.444466 -0.557655 0.830073 150.09 -22.835)" fill="url(#paint5_linear_3043_16211)" fill-opacity="0.9"/>
<g filter="url(#filter1_d_3043_16211)">
<path d="M36.8386 19.0261C37.5106 19.0261 38.1026 19.1434 38.6146 19.3781C39.1372 19.6127 39.5372 19.9381 39.8146 20.3541C40.0919 20.7594 40.2306 21.2234 40.2306 21.7461V27.0741C40.2306 27.2447 40.1452 27.3301 39.9746 27.3301H38.6306C38.4599 27.3301 38.3746 27.2447 38.3746 27.0741V26.6741C38.3746 26.6314 38.3639 26.6101 38.3426 26.6101C38.3212 26.5994 38.2946 26.6047 38.2626 26.6261C37.6866 27.1807 36.9186 27.4581 35.9586 27.4581C35.1692 27.4581 34.5186 27.2554 34.0066 26.8501C33.5052 26.4447 33.2546 25.8421 33.2546 25.0421C33.2546 24.2101 33.5426 23.5647 34.1186 23.1061C34.7052 22.6367 35.5266 22.4021 36.5826 22.4021H38.2786C38.3426 22.4021 38.3746 22.3701 38.3746 22.3061V21.9381C38.3746 21.5221 38.2466 21.2021 37.9906 20.9781C37.7452 20.7434 37.3772 20.6261 36.8866 20.6261C36.5132 20.6261 36.2039 20.6954 35.9586 20.8341C35.7132 20.9621 35.5479 21.1434 35.4626 21.3781C35.4199 21.5274 35.3239 21.5967 35.1746 21.5861L33.7346 21.4101C33.6492 21.3994 33.5852 21.3781 33.5426 21.3461C33.4999 21.3034 33.4839 21.2554 33.4946 21.2021C33.5906 20.5621 33.9426 20.0394 34.5506 19.6341C35.1692 19.2287 35.9319 19.0261 36.8386 19.0261ZM36.4706 25.9861C36.9932 25.9861 37.4412 25.8474 37.8146 25.5701C38.1879 25.2927 38.3746 24.9407 38.3746 24.5141V23.7781C38.3746 23.7141 38.3426 23.6821 38.2786 23.6821H36.9506C36.3852 23.6821 35.9372 23.7887 35.6066 24.0021C35.2759 24.2154 35.1106 24.5194 35.1106 24.9141C35.1106 25.2554 35.2386 25.5221 35.4946 25.7141C35.7506 25.8954 36.0759 25.9861 36.4706 25.9861ZM47.0379 16.3861C47.0379 16.2154 47.1233 16.1301 47.2939 16.1301H48.6379C48.8086 16.1301 48.8939 16.2154 48.8939 16.3861V27.0741C48.8939 27.2447 48.8086 27.3301 48.6379 27.3301H47.2939C47.1233 27.3301 47.0379 27.2447 47.0379 27.0741V26.6581C47.0379 26.6154 47.0219 26.5887 46.9899 26.5781C46.9686 26.5674 46.9473 26.5834 46.9259 26.6261C46.4673 27.1807 45.8593 27.4581 45.1019 27.4581C44.3553 27.4581 43.7153 27.2607 43.1819 26.8661C42.6486 26.4607 42.2646 25.9114 42.0299 25.2181C41.8379 24.6207 41.7419 23.9541 41.7419 23.2181C41.7419 22.4607 41.8326 21.8101 42.0139 21.2661C42.2486 20.5621 42.6273 20.0127 43.1499 19.6181C43.6726 19.2234 44.3233 19.0261 45.1019 19.0261C45.8486 19.0261 46.4566 19.2874 46.9259 19.8101C46.9473 19.8421 46.9686 19.8581 46.9899 19.8581C47.0219 19.8474 47.0379 19.8207 47.0379 19.7781V16.3861ZM46.6379 25.0901C46.8833 24.6741 47.0059 24.0554 47.0059 23.2341C47.0059 22.4021 46.8726 21.7674 46.6059 21.3301C46.3179 20.8607 45.9179 20.6261 45.4059 20.6261C44.8513 20.6261 44.4246 20.8501 44.1259 21.2981C43.8166 21.7674 43.6619 22.4181 43.6619 23.2501C43.6619 24.0181 43.7899 24.6261 44.0459 25.0741C44.3233 25.5861 44.7713 25.8421 45.3899 25.8421C45.9233 25.8421 46.3393 25.5914 46.6379 25.0901ZM55.8504 16.3861C55.8504 16.2154 55.9358 16.1301 56.1064 16.1301H57.4504C57.6211 16.1301 57.7064 16.2154 57.7064 16.3861V27.0741C57.7064 27.2447 57.6211 27.3301 57.4504 27.3301H56.1064C55.9358 27.3301 55.8504 27.2447 55.8504 27.0741V26.6581C55.8504 26.6154 55.8344 26.5887 55.8024 26.5781C55.7811 26.5674 55.7598 26.5834 55.7384 26.6261C55.2798 27.1807 54.6718 27.4581 53.9144 27.4581C53.1678 27.4581 52.5278 27.2607 51.9944 26.8661C51.4611 26.4607 51.0771 25.9114 50.8424 25.2181C50.6504 24.6207 50.5544 23.9541 50.5544 23.2181C50.5544 22.4607 50.6451 21.8101 50.8264 21.2661C51.0611 20.5621 51.4398 20.0127 51.9624 19.6181C52.4851 19.2234 53.1358 19.0261 53.9144 19.0261C54.6611 19.0261 55.2691 19.2874 55.7384 19.8101C55.7598 19.8421 55.7811 19.8581 55.8024 19.8581C55.8344 19.8474 55.8504 19.8207 55.8504 19.7781V16.3861ZM55.4504 25.0901C55.6958 24.6741 55.8184 24.0554 55.8184 23.2341C55.8184 22.4021 55.6851 21.7674 55.4184 21.3301C55.1304 20.8607 54.7304 20.6261 54.2184 20.6261C53.6638 20.6261 53.2371 20.8501 52.9384 21.2981C52.6291 21.7674 52.4744 22.4181 52.4744 23.2501C52.4744 24.0181 52.6024 24.6261 52.8584 25.0741C53.1358 25.5861 53.5838 25.8421 54.2024 25.8421C54.7358 25.8421 55.1518 25.5914 55.4504 25.0901ZM63.3669 25.8901C63.7616 25.8794 64.1029 25.7994 64.3909 25.6501C64.6896 25.4901 64.9296 25.2767 65.1109 25.0101C65.1643 24.9247 65.2336 24.8821 65.3189 24.8821C65.3723 24.8821 65.4203 24.8981 65.4629 24.9301L66.2309 25.5381C66.3056 25.6127 66.3429 25.6821 66.3429 25.7461C66.3429 25.7887 66.3269 25.8367 66.2949 25.8901C65.9856 26.3807 65.5643 26.7647 65.0309 27.0421C64.4976 27.3194 63.8843 27.4581 63.1909 27.4581C62.3483 27.4581 61.6389 27.2607 61.0629 26.8661C60.4976 26.4607 60.0869 25.9007 59.8309 25.1861C59.6176 24.5994 59.5109 23.9381 59.5109 23.2021C59.5109 22.4661 59.5696 21.9007 59.6869 21.5061C59.8896 20.7487 60.2896 20.1461 60.8869 19.6981C61.4843 19.2501 62.2096 19.0261 63.0629 19.0261C65.0576 19.0261 66.2256 20.1194 66.5669 22.3061C66.6203 22.6581 66.6576 23.0954 66.6789 23.6181C66.6789 23.7887 66.5936 23.8741 66.4229 23.8741H61.4629C61.3989 23.8741 61.3669 23.9061 61.3669 23.9701C61.3669 24.2581 61.3989 24.4927 61.4629 24.6741C61.5803 25.0581 61.8043 25.3567 62.1349 25.5701C62.4656 25.7834 62.8763 25.8901 63.3669 25.8901ZM63.0469 20.6261C62.6416 20.6261 62.3056 20.7274 62.0389 20.9301C61.7829 21.1221 61.6069 21.3941 61.5109 21.7461C61.4363 21.9594 61.3936 22.1834 61.3829 22.4181C61.3723 22.4821 61.3989 22.5141 61.4629 22.5141H64.6789C64.7429 22.5141 64.7749 22.4821 64.7749 22.4181C64.7323 22.0981 64.7003 21.9061 64.6789 21.8421C64.5829 21.4687 64.3909 21.1754 64.1029 20.9621C63.8256 20.7381 63.4736 20.6261 63.0469 20.6261ZM73.3348 16.3861C73.3348 16.2154 73.4201 16.1301 73.5908 16.1301H74.9348C75.1055 16.1301 75.1908 16.2154 75.1908 16.3861V27.0741C75.1908 27.2447 75.1055 27.3301 74.9348 27.3301H73.5908C73.4201 27.3301 73.3348 27.2447 73.3348 27.0741V26.6581C73.3348 26.6154 73.3188 26.5887 73.2868 26.5781C73.2655 26.5674 73.2441 26.5834 73.2228 26.6261C72.7641 27.1807 72.1561 27.4581 71.3988 27.4581C70.6521 27.4581 70.0121 27.2607 69.4788 26.8661C68.9455 26.4607 68.5615 25.9114 68.3268 25.2181C68.1348 24.6207 68.0388 23.9541 68.0388 23.2181C68.0388 22.4607 68.1295 21.8101 68.3108 21.2661C68.5455 20.5621 68.9241 20.0127 69.4468 19.6181C69.9695 19.2234 70.6201 19.0261 71.3988 19.0261C72.1455 19.0261 72.7535 19.2874 73.2228 19.8101C73.2441 19.8421 73.2655 19.8581 73.2868 19.8581C73.3188 19.8474 73.3348 19.8207 73.3348 19.7781V16.3861ZM72.9348 25.0901C73.1801 24.6741 73.3028 24.0554 73.3028 23.2341C73.3028 22.4021 73.1695 21.7674 72.9028 21.3301C72.6148 20.8607 72.2148 20.6261 71.7028 20.6261C71.1481 20.6261 70.7215 20.8501 70.4228 21.2981C70.1135 21.7674 69.9588 22.4181 69.9588 23.2501C69.9588 24.0181 70.0868 24.6261 70.3428 25.0741C70.6201 25.5861 71.0681 25.8421 71.6868 25.8421C72.2201 25.8421 72.6361 25.5914 72.9348 25.0901ZM87.4944 24.2741C87.4944 25.1487 87.2278 25.8687 86.6944 26.4341C86.1718 26.9887 85.4251 27.3141 84.4544 27.4101C84.3904 27.4314 84.3584 27.4687 84.3584 27.5221L84.3744 28.3061C84.3744 28.4767 84.2891 28.5621 84.1184 28.5621H83.3824C83.2118 28.5621 83.1264 28.4767 83.1264 28.3061L83.1424 27.5221C83.1424 27.4687 83.1104 27.4314 83.0464 27.4101C82.1504 27.3034 81.4464 26.9941 80.9344 26.4821C80.4224 25.9701 80.1664 25.3301 80.1664 24.5621V23.9061C80.1664 23.7354 80.2518 23.6501 80.4224 23.6501H81.7344C81.9051 23.6501 81.9904 23.7301 81.9904 23.8901V24.1461C81.9904 24.6367 82.1558 25.0474 82.4864 25.3781C82.8278 25.6981 83.2971 25.8581 83.8944 25.8581C84.4598 25.8581 84.8918 25.7194 85.1904 25.4421C85.4891 25.1541 85.6384 24.7967 85.6384 24.3701C85.6384 24.1141 85.5531 23.8901 85.3824 23.6981C85.2224 23.5061 85.0144 23.3407 84.7584 23.2021C84.5131 23.0634 84.1558 22.8874 83.6864 22.6741C83.6224 22.6421 83.4251 22.5514 83.0944 22.4021C82.7638 22.2421 82.4438 22.0714 82.1344 21.8901C81.4838 21.5167 80.9984 21.1221 80.6784 20.7061C80.3584 20.2901 80.1984 19.7461 80.1984 19.0741C80.1984 18.2421 80.4438 17.5594 80.9344 17.0261C81.4251 16.4927 82.1184 16.1674 83.0144 16.0501C83.0784 16.0287 83.1104 15.9914 83.1104 15.9381L83.0944 15.0421C83.0944 14.8714 83.1798 14.7861 83.3504 14.7861H84.0544C84.2251 14.7861 84.3104 14.8714 84.3104 15.0421L84.2944 15.9221C84.2944 15.9754 84.3264 16.0127 84.3904 16.0341C85.3504 16.1194 86.0918 16.4287 86.6144 16.9621C87.1478 17.4954 87.4144 18.1781 87.4144 19.0101V19.5061C87.4144 19.6767 87.3291 19.7621 87.1584 19.7621H85.8464C85.7718 19.7621 85.7078 19.7461 85.6544 19.7141C85.6118 19.6714 85.5904 19.6234 85.5904 19.5701V19.3941C85.5904 18.8714 85.4304 18.4447 85.1104 18.1141C84.7904 17.7727 84.3264 17.6021 83.7184 17.6021C83.1958 17.6021 82.7851 17.7301 82.4864 17.9861C82.1878 18.2314 82.0384 18.5727 82.0384 19.0101C82.0384 19.2874 82.1184 19.5221 82.2784 19.7141C82.4384 19.8954 82.6411 20.0501 82.8864 20.1781C83.1318 20.3061 83.4998 20.4661 83.9904 20.6581L84.9664 21.0581C85.8304 21.4527 86.4651 21.9114 86.8704 22.4341C87.2864 22.9461 87.4944 23.5594 87.4944 24.2741ZM96.4677 22.7221C96.6384 22.7221 96.7237 22.8074 96.7237 22.9781V24.1301C96.7237 24.3007 96.6384 24.3861 96.4677 24.3861H95.8917C95.8277 24.3861 95.7957 24.4181 95.7957 24.4821V27.0741C95.7957 27.2447 95.7104 27.3301 95.5397 27.3301H94.1957C94.025 27.3301 93.9397 27.2447 93.9397 27.0741V24.4821C93.9397 24.4181 93.9077 24.3861 93.8437 24.3861H89.0437C88.873 24.3861 88.7877 24.3007 88.7877 24.1301V23.2021C88.7877 23.0847 88.809 22.9834 88.8517 22.8981L91.8597 16.3221C91.913 16.1941 92.009 16.1301 92.1477 16.1301H93.5717C93.721 16.1301 93.7957 16.1887 93.7957 16.3061L93.7637 16.4341L90.9637 22.6101C90.9317 22.6847 90.9584 22.7221 91.0437 22.7221H93.8437C93.9077 22.7221 93.9397 22.6901 93.9397 22.6261V20.5301C93.9397 20.3594 94.025 20.2741 94.1957 20.2741H95.5397C95.7104 20.2741 95.7957 20.3594 95.7957 20.5301V22.6261C95.7957 22.6901 95.8277 22.7221 95.8917 22.7221H96.4677ZM102.083 27.5061C100.963 27.5061 100.072 27.1914 99.4107 26.5621C98.76 25.9221 98.4347 25.0634 98.4347 23.9861V19.4741C98.4347 18.4074 98.76 17.5647 99.4107 16.9461C100.072 16.3167 100.963 16.0021 102.083 16.0021C103.203 16.0021 104.093 16.3167 104.755 16.9461C105.427 17.5647 105.763 18.4074 105.763 19.4741V23.9861C105.763 25.0634 105.427 25.9221 104.755 26.5621C104.093 27.1914 103.203 27.5061 102.083 27.5061ZM102.083 25.8901C102.637 25.8901 103.08 25.7301 103.411 25.4101C103.741 25.0794 103.907 24.6367 103.907 24.0821V19.4101C103.907 18.8554 103.741 18.4181 103.411 18.0981C103.08 17.7674 102.637 17.6021 102.083 17.6021C101.539 17.6021 101.101 17.7674 100.771 18.0981C100.451 18.4181 100.291 18.8554 100.291 19.4101V24.0821C100.291 24.6367 100.451 25.0794 100.771 25.4101C101.101 25.7301 101.539 25.8901 102.083 25.8901Z" fill="white"/>
</g>
<path d="M22.6828 25.703L19.841 22.7209L19.7508 22.6263L19.6603 22.7206L18.6618 23.761L18.579 23.8473L18.6615 23.9338L22.5923 28.0587L22.6828 28.1537L22.7733 28.0587L31.2116 19.2038L31.2938 19.1176L31.2116 19.0314L30.2201 17.9909L30.1296 17.896L30.0391 17.9909L22.6828 25.703Z" fill="white" stroke="white" stroke-width="0.25"/>
</g>
</g>
<defs>
<filter id="filter0_d_3043_16211" x="0" y="0" width="126" height="52" filterUnits="userSpaceOnUse" color-interpolation-filters="sRGB">
<feFlood flood-opacity="0" result="BackgroundImageFix"/>
<feColorMatrix in="SourceAlpha" type="matrix" values="0 0 0 0 0 0 0 0 0 0 0 0 0 0 0 0 0 0 127 0" result="hardAlpha"/>
<feOffset dy="2"/>
<feGaussianBlur stdDeviation="4"/>
<feComposite in2="hardAlpha" operator="out"/>
<feColorMatrix type="matrix" values="0 0 0 0 0.1875 0 0 0 0 0 0 0 0 0 0 0 0 0 0.2 0"/>
<feBlend mode="normal" in2="BackgroundImageFix" result="effect1_dropShadow_3043_16211"/>
<feBlend mode="normal" in="SourceGraphic" in2="effect1_dropShadow_3043_16211" result="shape"/>
</filter>
<filter id="filter1_d_3043_16211" x="31.6771" y="14.7861" width="75.6615" height="16.9296" filterUnits="userSpaceOnUse" color-interpolation-filters="sRGB">
<feFlood flood-opacity="0" result="BackgroundImageFix"/>
<feColorMatrix in="SourceAlpha" type="matrix" values="0 0 0 0 0 0 0 0 0 0 0 0 0 0 0 0 0 0 127 0" result="hardAlpha"/>
<feOffset dy="1.57686"/>
<feGaussianBlur stdDeviation="0.788428"/>
<feComposite in2="hardAlpha" operator="out"/>
<feColorMatrix type="matrix" values="0 0 0 0 0.533333 0 0 0 0 0 0 0 0 0 0 0 0 0 0.22 0"/>
<feBlend mode="normal" in2="BackgroundImageFix" result="effect1_dropShadow_3043_16211"/>
<feBlend mode="normal" in="SourceGraphic" in2="effect1_dropShadow_3043_16211" result="shape"/>
</filter>
<linearGradient id="paint0_linear_3043_16211" x1="178.924" y1="28.7412" x2="177.386" y2="85.4223" gradientUnits="userSpaceOnUse">
<stop offset="0.197917" stop-color="#45009F"/>
<stop offset="0.489583" stop-color="#9747FF"/>
<stop offset="1" stop-color="#C447FF"/>
</linearGradient>
<linearGradient id="paint1_linear_3043_16211" x1="69.0044" y1="-7.01811" x2="67.466" y2="49.663" gradientUnits="userSpaceOnUse">
<stop stop-color="#45009F"/>
<stop offset="0.627267" stop-color="#9747FF"/>
<stop offset="0.883099" stop-color="#C447FF"/>
</linearGradient>
<linearGradient id="paint2_linear_3043_16211" x1="19.5108" y1="6.00314" x2="24.0541" y2="48.5464" gradientUnits="userSpaceOnUse">
<stop offset="0.298135" stop-color="white" stop-opacity="0"/>
<stop offset="1" stop-color="white"/>
</linearGradient>
<linearGradient id="paint3_linear_3043_16211" x1="62.7662" y1="10.2632" x2="62.7662" y2="36.7715" gradientUnits="userSpaceOnUse">
<stop offset="0.176572" stop-color="#FE2E00"/>
<stop offset="0.639354" stop-color="#FE6B00"/>
<stop offset="0.906302" stop-color="#FFE421"/>
</linearGradient>
<linearGradient id="paint4_linear_3043_16211" x1="40.041" y1="-25.4152" x2="75.0643" y2="33.3574" gradientUnits="userSpaceOnUse">
<stop offset="0.393687" stop-color="white"/>
<stop offset="0.707187" stop-color="white" stop-opacity="0"/>
<stop offset="0.992142" stop-color="white" stop-opacity="0"/>
</linearGradient>
<linearGradient id="paint5_linear_3043_16211" x1="12.816" y1="-2.69204" x2="47.994" y2="60.9591" gradientUnits="userSpaceOnUse">
<stop offset="0.393687" stop-color="white"/>
<stop offset="0.707187" stop-color="white" stop-opacity="0"/>
<stop offset="0.992142" stop-color="white" stop-opacity="0"/>
</linearGradient>
</defs>
</svg>
