<svg width="95" height="97" viewBox="0 0 95 97" fill="none" xmlns="http://www.w3.org/2000/svg">
<g opacity="0.2">
<g clip-path="url(#clip0_2971_48656)">
<rect x="0.820312" y="0.739258" width="93.7778" height="96.2327" rx="5.10563" fill="#253B80"/>
<g clip-path="url(#clip1_2971_48656)">
<path d="M38.5011 75.0579L39.4579 69.0127L37.3265 68.9635H27.1484L34.2216 24.3559C34.2436 24.2212 34.315 24.0956 34.4192 24.0065C34.5235 23.9173 34.6571 23.8682 34.7961 23.8682H51.9577C57.6551 23.8682 61.5869 25.0474 63.6397 27.3748C64.602 28.4667 65.2149 29.6077 65.5113 30.8633C65.8224 32.1808 65.8279 33.7549 65.5241 35.6747L65.5022 35.8149V37.045L66.4646 37.5873C67.2751 38.0149 67.9191 38.5045 68.4131 39.0649C69.2364 39.9985 69.7688 41.185 69.9938 42.5916C70.2262 44.0383 70.1494 45.7598 69.7688 47.7088C69.3297 49.9507 68.6198 51.9033 67.6611 53.5011C66.7792 54.9733 65.6559 56.1943 64.3221 57.1406C63.0487 58.0395 61.5356 58.7219 59.825 59.1587C58.1673 59.5882 56.2774 59.8047 54.2045 59.8047H52.8689C51.9138 59.8047 50.9862 60.1468 50.258 60.7601C49.528 61.3861 49.045 62.2414 48.8968 63.1767L48.7962 63.7208L47.1056 74.3755L47.0288 74.7667C47.0087 74.8905 46.9739 74.9524 46.9227 74.9942C46.8769 75.0324 46.8111 75.0579 46.747 75.0579H38.5011Z" fill="#253B80"/>
<path d="M67.3795 35.957C67.3283 36.2828 67.2697 36.6158 67.2039 36.9579C64.9407 48.5152 57.1978 52.5077 47.3089 52.5077H42.2739C41.0645 52.5077 40.0454 53.3812 39.857 54.5677L37.2791 70.829L36.5491 75.4385C36.4265 76.2173 37.0302 76.9197 37.8206 76.9197H46.7509C47.8084 76.9197 48.7067 76.1554 48.8732 75.1182L48.961 74.6669L50.6424 64.0541L50.7504 63.4717C50.915 62.4308 51.8152 61.6665 52.8727 61.6665H54.2083C62.8604 61.6665 69.6336 58.1726 71.6132 48.062C72.4402 43.8384 72.0121 40.3117 69.8239 37.8314C69.1615 37.0835 68.3401 36.4629 67.3795 35.957Z" fill="#179BD7"/>
<path d="M65.0144 35.0189C64.6686 34.9188 64.3119 34.8278 63.946 34.7459C63.5782 34.6659 63.2013 34.5949 62.8134 34.533C61.4559 34.3147 59.9684 34.2109 58.3749 34.2109H44.9237C44.5925 34.2109 44.2778 34.2855 43.9961 34.4202C43.3759 34.7168 42.9148 35.301 42.8032 36.0161L39.9417 54.0426L39.8594 54.5685C40.0478 53.3821 41.0669 52.5086 42.2763 52.5086H47.3113C57.2003 52.5086 64.9431 48.5142 67.2063 36.9588C67.274 36.6167 67.3307 36.2836 67.3819 35.9579C66.8093 35.6558 66.189 35.3974 65.5212 35.1772C65.3566 35.1226 65.1864 35.0699 65.0144 35.0189Z" fill="#222D65"/>
<path d="M42.7987 36.0152C42.9103 35.3 43.3713 34.7159 43.9916 34.4211C44.2751 34.2864 44.588 34.2118 44.9192 34.2118H58.3703C59.9639 34.2118 61.4514 34.3155 62.8089 34.5339C63.1968 34.5958 63.5737 34.6667 63.9414 34.7468C64.3074 34.8287 64.6641 34.9197 65.0099 35.0198C65.1819 35.0707 65.352 35.1235 65.5185 35.1763C66.1863 35.3965 66.8066 35.6567 67.3792 35.957C68.0525 31.686 67.3737 28.778 65.052 26.1448C62.4924 23.246 57.8727 22.0049 51.9613 22.0049H34.7997C33.5922 22.0049 32.5621 22.8784 32.3755 24.0667L25.2273 69.1329C25.0864 70.0246 25.778 70.8289 26.6818 70.8289H37.277L39.9372 54.0417L42.7987 36.0152Z" fill="white"/>
</g>
<rect x="-180.684" y="123.845" width="246.393" height="65.7275" transform="rotate(-50.9604 -180.684 123.845)" fill="white" fill-opacity="0.17"/>
</g>
</g>
<defs>
<clipPath id="clip0_2971_48656">
<rect x="0.820312" y="0.739258" width="93.7778" height="96.2327" rx="5.10563" fill="white"/>
</clipPath>
<clipPath id="clip1_2971_48656">
<rect width="49.1703" height="58.6871" fill="white" transform="translate(23.3027 20.1787)"/>
</clipPath>
</defs>
</svg>
