<svg width="151" height="153" viewBox="0 0 151 153" fill="none" xmlns="http://www.w3.org/2000/svg">
<g filter="url(#filter0_d_2971_49049)">
<g clip-path="url(#clip0_2971_49049)">
<rect x="28.9121" y="15.7617" width="93.7556" height="96.21" rx="5.10442" fill="#253B80"/>
<g opacity="0.2" clip-path="url(#clip1_2971_49049)">
<path d="M66.8265 89.4286L67.7832 83.3848L65.6522 83.3357H55.4766L62.5481 38.7386C62.57 38.6039 62.6414 38.4784 62.7456 38.3892C62.8499 38.3001 62.9834 38.251 63.1225 38.251H80.28C85.976 38.251 89.9068 39.4299 91.9592 41.7568C92.9213 42.8484 93.5341 43.9891 93.8304 45.2445C94.1414 46.5617 94.1468 48.1354 93.8432 50.0548L93.8213 50.1949V51.4247L94.7834 51.9669C95.5937 52.3944 96.2376 52.8838 96.7314 53.4442C97.5546 54.3775 98.0869 55.5637 98.3118 56.97C98.5441 58.4164 98.4673 60.1375 98.0869 62.086C97.6479 64.3274 96.9381 66.2795 95.9797 67.8769C95.098 69.3487 93.9749 70.5695 92.6414 71.5155C91.3683 72.4143 89.8556 73.0965 88.1454 73.5332C86.4881 73.9625 84.5986 74.179 82.5262 74.179H81.1909C80.2361 74.179 79.3087 74.5211 78.5807 75.1342C77.8509 75.76 77.368 76.6151 77.2198 77.5502L77.1192 78.0942L75.429 88.7464L75.3522 89.1375C75.3321 89.2612 75.2973 89.3231 75.2461 89.3649C75.2004 89.4031 75.1346 89.4286 75.0705 89.4286H66.8265Z" fill="#253B80"/>
<path d="M95.7004 50.3359C95.6491 50.6616 95.5906 50.9945 95.5248 51.3366C93.2621 62.8911 85.5211 66.8827 75.6345 66.8827H70.6006C69.3915 66.8827 68.3727 67.756 68.1843 68.9422L65.607 85.1997L64.8772 89.808C64.7546 90.5867 65.3583 91.289 66.1484 91.289H75.0766C76.1338 91.289 77.0319 90.5248 77.1984 89.4878L77.2862 89.0366L78.9672 78.4263L79.0751 77.8441C79.2397 76.8035 80.1397 76.0394 81.1969 76.0394H82.5322C91.1823 76.0394 97.9539 72.5463 99.933 62.4381C100.76 58.2154 100.332 54.6896 98.1441 52.2098C97.482 51.4621 96.6607 50.8417 95.7004 50.3359Z" fill="#179BD7"/>
<path d="M93.3347 49.3976C92.989 49.2976 92.6323 49.2066 92.2664 49.1247C91.8988 49.0447 91.522 48.9737 91.1342 48.9119C89.777 48.6935 88.2899 48.5898 86.6967 48.5898H73.2487C72.9176 48.5898 72.603 48.6644 72.3213 48.7991C71.7012 49.0956 71.2402 49.6796 71.1287 50.3946L68.2679 68.4169L68.1855 68.9426C68.374 67.7564 69.3928 66.8832 70.6019 66.8832H75.6357C85.5223 66.8832 93.2633 62.8897 95.526 51.337C95.5937 50.995 95.6504 50.6621 95.7016 50.3364C95.1291 50.0344 94.509 49.776 93.8414 49.5559C93.6767 49.5013 93.5066 49.4486 93.3347 49.3976Z" fill="#222D65"/>
<path d="M71.1246 50.3947C71.2362 49.6797 71.6971 49.0957 72.3172 48.801C72.6007 48.6663 72.9135 48.5917 73.2446 48.5917H86.6926C88.2858 48.5917 89.7729 48.6954 91.1301 48.9138C91.5179 48.9756 91.8947 49.0466 92.2624 49.1266C92.6282 49.2085 92.9849 49.2995 93.3306 49.3995C93.5025 49.4505 93.6726 49.5032 93.8391 49.556C94.5067 49.7761 95.1268 50.0363 95.6994 50.3365C96.3725 46.0665 95.6939 43.1592 93.3727 40.5267C90.8137 37.6285 86.195 36.3877 80.285 36.3877H63.1275C61.9203 36.3877 60.8904 37.261 60.7039 38.449L53.5573 83.5046C53.4165 84.3961 54.1079 85.2002 55.0115 85.2002H65.6042L68.2638 68.4169L71.1246 50.3947Z" fill="white"/>
</g>
<rect x="97.5684" y="138.724" width="246.335" height="65.7119" transform="rotate(-50.9604 97.5684 138.724)" fill="white" fill-opacity="0.17"/>
<path d="M59.5626 54.8341C59.7694 55.4658 59.8727 56.1836 59.8727 56.9875C59.8727 57.8029 59.7751 58.5035 59.5799 59.0893C59.3272 59.8473 58.9195 60.4387 58.3567 60.8637C57.7939 61.2886 57.0934 61.5011 56.255 61.5011C55.451 61.5011 54.7964 61.2197 54.291 60.657C54.2681 60.6225 54.2394 60.611 54.2049 60.6225C54.1819 60.6225 54.1704 60.6455 54.1704 60.6914V64.3436C54.1704 64.5274 54.0786 64.6193 53.8948 64.6193H52.4477C52.2639 64.6193 52.1721 64.5274 52.1721 64.3436V52.8357C52.1721 52.6519 52.2639 52.5601 52.4477 52.5601H53.8948C54.0786 52.5601 54.1704 52.6519 54.1704 52.8357V53.2836C54.1704 53.3296 54.1819 53.3583 54.2049 53.3698C54.2394 53.3812 54.2681 53.364 54.291 53.3181C54.7849 52.7209 55.4395 52.4222 56.255 52.4222C57.0589 52.4222 57.748 52.6405 58.3223 53.0769C58.8965 53.5018 59.31 54.0876 59.5626 54.8341ZM57.3058 59.0548C57.6389 58.5495 57.8054 57.8489 57.8054 56.9531C57.8054 56.1261 57.6676 55.4715 57.392 54.9891C57.0934 54.4379 56.611 54.1622 55.9449 54.1622C55.3706 54.1622 54.9227 54.4321 54.6011 54.9719C54.337 55.4198 54.2049 56.0859 54.2049 56.9703C54.2049 57.8661 54.3485 58.5495 54.6356 59.0204C54.9457 59.5257 55.3764 59.7784 55.9276 59.7784C56.5249 59.7784 56.9843 59.5372 57.3058 59.0548ZM65.0011 52.4222C65.7247 52.4222 66.3621 52.5486 66.9134 52.8013C67.4761 53.0539 67.9068 53.4042 68.2054 53.8521C68.504 54.2886 68.6533 54.7881 68.6533 55.3509V61.0876C68.6533 61.2714 68.5614 61.3633 68.3777 61.3633H66.9306C66.7468 61.3633 66.6549 61.2714 66.6549 61.0876V60.657C66.6549 60.611 66.6435 60.588 66.6205 60.588C66.5975 60.5766 66.5688 60.5823 66.5343 60.6053C65.9142 61.2025 65.0872 61.5011 64.0536 61.5011C63.2037 61.5011 62.5031 61.2829 61.9519 60.8465C61.4121 60.41 61.1422 59.7611 61.1422 58.8998C61.1422 58.0039 61.4523 57.3091 62.0724 56.8152C62.7041 56.3099 63.5885 56.0572 64.7255 56.0572H66.5516C66.6205 56.0572 66.6549 56.0228 66.6549 55.9539V55.5576C66.6549 55.1097 66.5171 54.7652 66.2415 54.524C65.9773 54.2713 65.5811 54.145 65.0528 54.145C64.6508 54.145 64.3178 54.2196 64.0536 54.3689C63.7894 54.5068 63.6114 54.702 63.5196 54.9547C63.4736 55.1155 63.3702 55.1901 63.2095 55.1786L61.659 54.9891C61.5671 54.9777 61.4982 54.9547 61.4523 54.9202C61.4063 54.8743 61.3891 54.8226 61.4006 54.7652C61.5039 54.0761 61.8829 53.5133 62.5376 53.0769C63.2037 52.6405 64.0249 52.4222 65.0011 52.4222ZM64.6049 59.9162C65.1676 59.9162 65.65 59.7669 66.052 59.4683C66.454 59.1697 66.6549 58.7907 66.6549 58.3313V57.5388C66.6549 57.4699 66.6205 57.4354 66.5516 57.4354H65.1217C64.513 57.4354 64.0306 57.5503 63.6746 57.78C63.3186 58.0097 63.1405 58.337 63.1405 58.7619C63.1405 59.1295 63.2784 59.4166 63.554 59.6233C63.8296 59.8186 64.1799 59.9162 64.6049 59.9162ZM70.2851 64.7915C70.2047 64.7915 70.1645 64.6997 70.1645 64.5159V63.4133C70.1645 63.2296 70.2047 63.1377 70.2851 63.1377H70.3884C70.8593 63.1377 71.2268 63.0918 71.491 62.9999C71.7552 62.9195 71.9676 62.7587 72.1284 62.5175C72.3007 62.2763 72.4557 61.9146 72.5936 61.4322C72.6165 61.3748 72.6165 61.3288 72.5936 61.2944L69.7855 52.8702C69.774 52.8357 69.7683 52.7955 69.7683 52.7496C69.7683 52.6232 69.8486 52.5601 70.0094 52.5601H71.5599C71.7207 52.5601 71.8241 52.6347 71.87 52.784L73.5583 58.4863C73.5813 58.5322 73.6042 58.5552 73.6272 58.5552C73.6617 58.5552 73.6846 58.5322 73.6961 58.4863L75.3327 52.784C75.3787 52.6347 75.482 52.5601 75.6428 52.5601H77.1933C77.2966 52.5601 77.3655 52.5888 77.4 52.6462C77.4459 52.6921 77.4517 52.7668 77.4172 52.8702L74.4024 61.8456C74.1153 62.6611 73.8339 63.2698 73.5583 63.6718C73.2826 64.0737 72.9036 64.3609 72.4213 64.5331C71.9504 64.7054 71.2785 64.7915 70.4057 64.7915H70.2851ZM86.3627 54.8341C86.5694 55.4658 86.6728 56.1836 86.6728 56.9875C86.6728 57.8029 86.5752 58.5035 86.3799 59.0893C86.1273 59.8473 85.7195 60.4387 85.1568 60.8637C84.594 61.2886 83.8934 61.5011 83.055 61.5011C82.2511 61.5011 81.5964 61.2197 81.0911 60.657C81.0681 60.6225 81.0394 60.611 81.005 60.6225C80.982 60.6225 80.9705 60.6455 80.9705 60.6914V64.3436C80.9705 64.5274 80.8786 64.6193 80.6949 64.6193H79.2478C79.064 64.6193 78.9721 64.5274 78.9721 64.3436V52.8357C78.9721 52.6519 79.064 52.5601 79.2478 52.5601H80.6949C80.8786 52.5601 80.9705 52.6519 80.9705 52.8357V53.2836C80.9705 53.3296 80.982 53.3583 81.005 53.3698C81.0394 53.3812 81.0681 53.364 81.0911 53.3181C81.585 52.7209 82.2396 52.4222 83.055 52.4222C83.859 52.4222 84.5481 52.6405 85.1223 53.0769C85.6966 53.5018 86.11 54.0876 86.3627 54.8341ZM84.1059 59.0548C84.439 58.5495 84.6055 57.8489 84.6055 56.9531C84.6055 56.1261 84.4677 55.4715 84.192 54.9891C83.8934 54.4379 83.4111 54.1622 82.7449 54.1622C82.1707 54.1622 81.7228 54.4321 81.4012 54.9719C81.1371 55.4198 81.005 56.0859 81.005 56.9703C81.005 57.8661 81.1485 58.5495 81.4357 59.0204C81.7458 59.5257 82.1764 59.7784 82.7277 59.7784C83.3249 59.7784 83.7843 59.5372 84.1059 59.0548ZM91.8012 52.4222C92.5247 52.4222 93.1622 52.5486 93.7134 52.8013C94.2762 53.0539 94.7069 53.4042 95.0055 53.8521C95.3041 54.2886 95.4534 54.7881 95.4534 55.3509V61.0876C95.4534 61.2714 95.3615 61.3633 95.1778 61.3633H93.7307C93.5469 61.3633 93.455 61.2714 93.455 61.0876V60.657C93.455 60.611 93.4435 60.588 93.4206 60.588C93.3976 60.5766 93.3689 60.5823 93.3344 60.6053C92.7142 61.2025 91.8873 61.5011 90.8537 61.5011C90.0038 61.5011 89.3032 61.2829 88.7519 60.8465C88.2121 60.41 87.9422 59.7611 87.9422 58.8998C87.9422 58.0039 88.2523 57.3091 88.8725 56.8152C89.5042 56.3099 90.3885 56.0572 91.5255 56.0572H93.3517C93.4206 56.0572 93.455 56.0228 93.455 55.9539V55.5576C93.455 55.1097 93.3172 54.7652 93.0416 54.524C92.7774 54.2713 92.3812 54.145 91.8529 54.145C91.4509 54.145 91.1178 54.2196 90.8537 54.3689C90.5895 54.5068 90.4115 54.702 90.3196 54.9547C90.2737 55.1155 90.1703 55.1901 90.0095 55.1786L88.4591 54.9891C88.3672 54.9777 88.2983 54.9547 88.2523 54.9202C88.2064 54.8743 88.1892 54.8226 88.2007 54.7652C88.304 54.0761 88.683 53.5133 89.3377 53.0769C90.0038 52.6405 90.825 52.4222 91.8012 52.4222ZM91.405 59.9162C91.9677 59.9162 92.4501 59.7669 92.8521 59.4683C93.254 59.1697 93.455 58.7907 93.455 58.3313V57.5388C93.455 57.4699 93.4206 57.4354 93.3517 57.4354H91.9218C91.3131 57.4354 90.8307 57.5503 90.4747 57.78C90.1186 58.0097 89.9406 58.337 89.9406 58.7619C89.9406 59.1295 90.0784 59.4166 90.3541 59.6233C90.6297 59.8186 90.98 59.9162 91.405 59.9162ZM97.7354 61.3633C97.5516 61.3633 97.4597 61.2714 97.4597 61.0876V49.5797C97.4597 49.396 97.5516 49.3041 97.7354 49.3041H99.1825C99.3662 49.3041 99.4581 49.396 99.4581 49.5797V61.0876C99.4581 61.2714 99.3662 61.3633 99.1825 61.3633H97.7354ZM56.8164 70.4222C57.54 70.4222 58.1774 70.5486 58.7286 70.8013C59.2914 71.0539 59.7221 71.4042 60.0207 71.8521C60.3193 72.2886 60.4686 72.7881 60.4686 73.3509V79.0876C60.4686 79.2714 60.3767 79.3633 60.193 79.3633H58.7459C58.5621 79.3633 58.4702 79.2714 58.4702 79.0876V78.657C58.4702 78.611 58.4587 78.588 58.4358 78.588C58.4128 78.5766 58.3841 78.5823 58.3496 78.6053C57.7295 79.2025 56.9025 79.5011 55.8689 79.5011C55.019 79.5011 54.3184 79.2829 53.7671 78.8465C53.2274 78.41 52.9575 77.7611 52.9575 76.8998C52.9575 76.0039 53.2676 75.3091 53.8877 74.8152C54.5194 74.3099 55.4038 74.0572 56.5408 74.0572H58.3669C58.4358 74.0572 58.4702 74.0228 58.4702 73.9539V73.5576C58.4702 73.1097 58.3324 72.7652 58.0568 72.524C57.7926 72.2713 57.3964 72.145 56.8681 72.145C56.4661 72.145 56.133 72.2196 55.8689 72.3689C55.6047 72.5068 55.4267 72.702 55.3348 72.9547C55.2889 73.1155 55.1855 73.1901 55.0247 73.1786L53.4743 72.9891C53.3824 72.9777 53.3135 72.9547 53.2676 72.9202C53.2216 72.8743 53.2044 72.8226 53.2159 72.7652C53.3192 72.0761 53.6982 71.5133 54.3529 71.0769C55.019 70.6405 55.8402 70.4222 56.8164 70.4222ZM56.4202 77.9162C56.9829 77.9162 57.4653 77.7669 57.8673 77.4683C58.2692 77.1697 58.4702 76.7907 58.4702 76.3313V75.5388C58.4702 75.4699 58.4358 75.4354 58.3669 75.4354H56.937C56.3283 75.4354 55.8459 75.5503 55.4899 75.78C55.1339 76.0097 54.9558 76.337 54.9558 76.7619C54.9558 77.1295 55.0937 77.4166 55.3693 77.6233C55.6449 77.8186 55.9952 77.9162 56.4202 77.9162ZM67.7982 67.5797C67.7982 67.396 67.8901 67.3041 68.0738 67.3041H69.5209C69.7047 67.3041 69.7966 67.396 69.7966 67.5797V79.0876C69.7966 79.2714 69.7047 79.3633 69.5209 79.3633H68.0738C67.8901 79.3633 67.7982 79.2714 67.7982 79.0876V78.6397C67.7982 78.5938 67.781 78.5651 67.7465 78.5536C67.7236 78.5421 67.7006 78.5593 67.6776 78.6053C67.1838 79.2025 66.5291 79.5011 65.7137 79.5011C64.9097 79.5011 64.2206 79.2886 63.6464 78.8637C63.0722 78.4273 62.6587 77.8358 62.406 77.0893C62.1993 76.4461 62.0959 75.7283 62.0959 74.9358C62.0959 74.1204 62.1936 73.4198 62.3888 72.8341C62.6415 72.0761 63.0492 71.4846 63.6119 71.0597C64.1747 70.6347 64.8753 70.4222 65.7137 70.4222C66.5176 70.4222 67.1723 70.7036 67.6776 71.2664C67.7006 71.3008 67.7236 71.3181 67.7465 71.3181C67.781 71.3066 67.7982 71.2779 67.7982 71.2319V67.5797ZM67.3675 76.9514C67.6317 76.5035 67.7638 75.8374 67.7638 74.9531C67.7638 74.0572 67.6202 73.3739 67.3331 72.903C67.023 72.3977 66.5923 72.145 66.041 72.145C65.4438 72.145 64.9844 72.3862 64.6628 72.8685C64.3298 73.3739 64.1632 74.0745 64.1632 74.9703C64.1632 75.7972 64.301 76.4518 64.5767 76.9342C64.8753 77.4855 65.3577 77.7611 66.0238 77.7611C66.598 77.7611 67.0459 77.4912 67.3675 76.9514ZM77.2867 67.5797C77.2867 67.396 77.3786 67.3041 77.5624 67.3041H79.0095C79.1932 67.3041 79.2851 67.396 79.2851 67.5797V79.0876C79.2851 79.2714 79.1932 79.3633 79.0095 79.3633H77.5624C77.3786 79.3633 77.2867 79.2714 77.2867 79.0876V78.6397C77.2867 78.5938 77.2695 78.5651 77.2351 78.5536C77.2121 78.5421 77.1891 78.5593 77.1662 78.6053C76.6723 79.2025 76.0177 79.5011 75.2022 79.5011C74.3983 79.5011 73.7092 79.2886 73.1349 78.8637C72.5607 78.4273 72.1472 77.8358 71.8946 77.0893C71.6878 76.4461 71.5845 75.7283 71.5845 74.9358C71.5845 74.1204 71.6821 73.4198 71.8773 72.8341C72.13 72.0761 72.5377 71.4846 73.1005 71.0597C73.6632 70.6347 74.3638 70.4222 75.2022 70.4222C76.0062 70.4222 76.6608 70.7036 77.1662 71.2664C77.1891 71.3008 77.2121 71.3181 77.2351 71.3181C77.2695 71.3066 77.2867 71.2779 77.2867 71.2319V67.5797ZM76.8561 76.9514C77.1202 76.5035 77.2523 75.8374 77.2523 74.9531C77.2523 74.0572 77.1087 73.3739 76.8216 72.903C76.5115 72.3977 76.0808 72.145 75.5296 72.145C74.9323 72.145 74.4729 72.3862 74.1514 72.8685C73.8183 73.3739 73.6518 74.0745 73.6518 74.9703C73.6518 75.7972 73.7896 76.4518 74.0652 76.9342C74.3638 77.4855 74.8462 77.7611 75.5123 77.7611C76.0866 77.7611 76.5345 77.4912 76.8561 76.9514ZM85.3799 77.8128C85.8048 77.8013 86.1723 77.7152 86.4824 77.5544C86.804 77.3821 87.0624 77.1524 87.2577 76.8653C87.3151 76.7734 87.3897 76.7275 87.4816 76.7275C87.539 76.7275 87.5907 76.7447 87.6367 76.7792L88.4636 77.4338C88.544 77.5142 88.5842 77.5889 88.5842 77.6578C88.5842 77.7037 88.5669 77.7554 88.5325 77.8128C88.1994 78.3411 87.7458 78.7546 87.1715 79.0532C86.5973 79.3518 85.9369 79.5011 85.1904 79.5011C84.2831 79.5011 83.5193 79.2886 82.8991 78.8637C82.2904 78.4273 81.8482 77.8243 81.5726 77.0548C81.3429 76.4231 81.2281 75.7111 81.2281 74.9186C81.2281 74.1261 81.2912 73.5174 81.4176 73.0925C81.6358 72.2771 82.0665 71.6282 82.7096 71.1458C83.3528 70.6634 84.1338 70.4222 85.0525 70.4222C87.2002 70.4222 88.4578 71.5995 88.8254 73.9539C88.8828 74.3329 88.923 74.8038 88.9459 75.3665C88.9459 75.5503 88.8541 75.6422 88.6703 75.6422H83.3298C83.2609 75.6422 83.2264 75.6766 83.2264 75.7455C83.2264 76.0556 83.2609 76.3083 83.3298 76.5035C83.4561 76.917 83.6973 77.2386 84.0534 77.4683C84.4094 77.698 84.8516 77.8128 85.3799 77.8128ZM85.0353 72.145C84.5989 72.145 84.2371 72.2541 83.95 72.4723C83.6744 72.679 83.4849 72.9719 83.3815 73.3509C83.3011 73.5806 83.2552 73.8218 83.2437 74.0745C83.2322 74.1434 83.2609 74.1778 83.3298 74.1778H86.7925C86.8614 74.1778 86.8959 74.1434 86.8959 74.0745C86.8499 73.7299 86.8155 73.5232 86.7925 73.4543C86.6892 73.0523 86.4824 72.7365 86.1723 72.5068C85.8737 72.2656 85.4947 72.145 85.0353 72.145ZM96.1124 67.5797C96.1124 67.396 96.2043 67.3041 96.3881 67.3041H97.8352C98.0189 67.3041 98.1108 67.396 98.1108 67.5797V79.0876C98.1108 79.2714 98.0189 79.3633 97.8352 79.3633H96.3881C96.2043 79.3633 96.1124 79.2714 96.1124 79.0876V78.6397C96.1124 78.5938 96.0952 78.5651 96.0607 78.5536C96.0378 78.5421 96.0148 78.5593 95.9918 78.6053C95.498 79.2025 94.8433 79.5011 94.0279 79.5011C93.2239 79.5011 92.5349 79.2886 91.9606 78.8637C91.3864 78.4273 90.9729 77.8358 90.7202 77.0893C90.5135 76.4461 90.4101 75.7283 90.4101 74.9358C90.4101 74.1204 90.5078 73.4198 90.703 72.8341C90.9557 72.0761 91.3634 71.4846 91.9261 71.0597C92.4889 70.6347 93.1895 70.4222 94.0279 70.4222C94.8318 70.4222 95.4865 70.7036 95.9918 71.2664C96.0148 71.3008 96.0378 71.3181 96.0607 71.3181C96.0952 71.3066 96.1124 71.2779 96.1124 71.2319V67.5797ZM95.6817 76.9514C95.9459 76.5035 96.078 75.8374 96.078 74.9531C96.078 74.0572 95.9344 73.3739 95.6473 72.903C95.3372 72.3977 94.9065 72.145 94.3552 72.145C93.758 72.145 93.2986 72.3862 92.977 72.8685C92.644 73.3739 92.4774 74.0745 92.4774 74.9703C92.4774 75.7972 92.6152 76.4518 92.8909 76.9342C93.1895 77.4855 93.6719 77.7611 94.338 77.7611C94.9122 77.7611 95.3601 77.4912 95.6817 76.9514Z" fill="white"/>
</g>
<rect x="30.5072" y="17.3569" width="90.5654" height="93.0197" rx="3.50929" stroke="white" stroke-width="3.19026"/>
</g>
<defs>
<filter id="filter0_d_2971_49049" x="0.837795" y="0.448456" width="149.904" height="152.359" filterUnits="userSpaceOnUse" color-interpolation-filters="sRGB">
<feFlood flood-opacity="0" result="BackgroundImageFix"/>
<feColorMatrix in="SourceAlpha" type="matrix" values="0 0 0 0 0 0 0 0 0 0 0 0 0 0 0 0 0 0 127 0" result="hardAlpha"/>
<feOffset dy="12.7611"/>
<feGaussianBlur stdDeviation="14.0372"/>
<feComposite in2="hardAlpha" operator="out"/>
<feColorMatrix type="matrix" values="0 0 0 0 0 0 0 0 0 0 0 0 0 0 0 0 0 0 0.35 0"/>
<feBlend mode="normal" in2="BackgroundImageFix" result="effect1_dropShadow_2971_49049"/>
<feBlend mode="normal" in="SourceGraphic" in2="effect1_dropShadow_2971_49049" result="shape"/>
</filter>
<clipPath id="clip0_2971_49049">
<rect x="28.9121" y="15.7617" width="93.7556" height="96.21" rx="5.10442" fill="white"/>
</clipPath>
<clipPath id="clip1_2971_49049">
<rect width="49.1587" height="58.6733" fill="white" transform="translate(51.6328 34.5625)"/>
</clipPath>
</defs>
</svg>
